<?xml version="1.0" encoding="UTF-8"?>
<svg xmlns="http://www.w3.org/2000/svg" id="Layer_1" data-name="Layer 1" viewBox="0 0 24 24">
  <path d="M18,8c1.103,0,2-.897,2-2s-.897-2-2-2-2,.897-2,2,.897,2,2,2Zm0-3c.552,0,1,.449,1,1s-.448,1-1,1-1-.449-1-1,.448-1,1-1Zm-4.5,2.5h.271c.18,.515,.446,.988,.786,1.396l-.131,.223c-.203,.346-.406,1.482,.532,2.053s1.851-.187,2.055-.533l.137-.233c.598,.128,1.101,.128,1.7,0l.137,.233c.203,.346,1.041,1.065,2.053,.533s.736-1.708,.533-2.053l-.131-.223c.34-.408,.606-.881,.786-1.396h.271c.827,0,1.5-.673,1.5-1.5s-.673-1.5-1.5-1.5h-.271c-.18-.515-.446-.988-.786-1.396l.131-.223c.203-.346,.56-1.482-.532-2.053s-1.851,.187-2.053,.532l-.138,.234c-.6-.128-1.103-.128-1.7,0l-.138-.234c-.203-.345-1.041-1.064-2.053-.532s-.736,1.708-.533,2.053l.131,.223c-.34,.408-.606,.881-.786,1.396h-.271c-.827,0-1.5,.673-1.5,1.5s.673,1.5,1.5,1.5Zm0-2h.642c.228,0,.427-.154,.484-.375,.16-.619,.472-1.173,.903-1.603,.161-.161,.193-.411,.077-.607l-.318-.541c-.067-.115-.086-.25-.053-.379,.033-.129,.115-.237,.231-.306,.114-.067,.252-.086,.378-.053,.13,.034,.238,.115,.306,.23l.326,.556c.116,.197,.353,.29,.568,.228,.723-.206,1.188-.206,1.91,0,.217,.062,.453-.03,.567-.228l.328-.557c.067-.115,.176-.197,.305-.23,.128-.033,.264-.014,.379,.053,.115,.068,.197,.176,.23,.305,.033,.129,.015,.264-.053,.379l-.318,.541c-.116,.196-.084,.446,.077,.607,.432,.43,.743,.984,.903,1.603,.058,.221,.257,.375,.484,.375h.642c.275,0,.5,.224,.5,.5s-.225,.5-.5,.5h-.642c-.228,0-.427,.154-.484,.375-.16,.619-.472,1.173-.903,1.603-.161,.161-.193,.411-.077,.607l.318,.541c.067,.115,.086,.25,.053,.379-.033,.129-.115,.237-.231,.306-.114,.067-.248,.085-.378,.053-.129-.033-.237-.115-.306-.23l-.327-.556c-.091-.156-.257-.247-.431-.247-.046,0-.092,.006-.137,.019-.723,.206-1.188,.206-1.91,0-.216-.061-.452,.032-.568,.228l-.325,.556c-.068,.115-.177,.197-.307,.23-.126,.034-.263,.015-.379-.053-.115-.068-.197-.176-.23-.305-.033-.129-.015-.264,.053-.379l.318-.541c.116-.196,.084-.446-.077-.607-.432-.43-.743-.984-.903-1.603-.058-.221-.257-.375-.484-.375h-.642c-.275,0-.5-.224-.5-.5s.225-.5,.5-.5Zm4.5,10.5c-1.103,0-2,.897-2,2s.897,2,2,2,2-.897,2-2-.897-2-2-2Zm0,3c-.552,0-1-.449-1-1s.448-1,1-1,1,.449,1,1-.448,1-1,1Zm4.5-2.5h-.271c-.18-.515-.446-.988-.786-1.396l.131-.223c.203-.346,.509-1.43-.532-2.053s-1.851,.187-2.053,.532l-.138,.234c-.6-.128-1.103-.128-1.7,0l-.138-.234c-.203-.345-.965-1.166-2.053-.532s-.736,1.708-.533,2.053l.131,.223c-.34,.408-.606,.881-.786,1.396h-.271c-.827,0-1.5,.673-1.5,1.5s.673,1.5,1.5,1.5h.271c.18,.515,.446,.988,.786,1.396l-.131,.223c-.203,.346-.458,1.482,.532,2.053s1.851-.187,2.055-.533l.137-.233c.598,.128,1.101,.128,1.7,0l.137,.233c.203,.346,1.041,1.039,2.053,.533s.736-1.708,.533-2.053l-.131-.223c.34-.408,.606-.881,.786-1.396h.271c.827,0,1.5-.673,1.5-1.5s-.673-1.5-1.5-1.5Zm0,2h-.642c-.228,0-.427,.154-.484,.375-.16,.619-.472,1.173-.903,1.603-.161,.161-.193,.411-.077,.607l.318,.541c.067,.115,.086,.25,.053,.379-.033,.129-.115,.237-.231,.306-.114,.067-.248,.086-.378,.053-.129-.033-.237-.115-.306-.23l-.327-.556c-.091-.156-.257-.247-.431-.247-.046,0-.092,.006-.137,.019-.723,.206-1.188,.206-1.91,0-.216-.06-.452,.031-.568,.228l-.325,.556c-.068,.115-.177,.197-.307,.23-.126,.034-.263,.015-.379-.053-.115-.068-.197-.176-.23-.305-.033-.129-.015-.264,.053-.379l.318-.541c.116-.196,.084-.446-.077-.607-.432-.43-.743-.984-.903-1.603-.058-.221-.257-.375-.484-.375h-.642c-.275,0-.5-.224-.5-.5s.225-.5,.5-.5h.642c.228,0,.427-.154,.484-.375,.16-.619,.472-1.173,.903-1.603,.161-.161,.193-.411,.077-.607l-.318-.541c-.067-.115-.086-.25-.053-.379,.033-.129,.115-.237,.231-.306,.114-.067,.252-.085,.378-.053,.13,.034,.238,.115,.306,.23l.326,.556c.116,.197,.353,.288,.568,.228,.723-.206,1.188-.206,1.91,0,.217,.061,.453-.031,.567-.228l.328-.557c.067-.115,.176-.197,.305-.23,.128-.032,.264-.015,.379,.053s.197,.176,.23,.305c.033,.129,.015,.264-.053,.379l-.318,.541c-.116,.196-.084,.446,.077,.607,.432,.43,.743,.984,.903,1.603,.058,.221,.257,.375,.484,.375h.642c.275,0,.5,.224,.5,.5s-.225,.5-.5,.5ZM6,6C2.691,6,0,8.691,0,12s2.691,6,6,6,6-2.691,6-6-2.691-6-6-6Zm0,11c-2.757,0-5-2.243-5-5S3.243,7,6,7s5,2.243,5,5-2.243,5-5,5Zm-1.5-6.378c0,.279,.188,.526,.458,.6l2.284,.499c.75,.2,1.258,.862,1.258,1.614,0,.918-.748,1.666-1.666,1.666h-.334v.5c0,.276-.224,.5-.5,.5s-.5-.224-.5-.5v-.5h-.334c-.981,0-1.666-.617-1.666-1.5,0-.276,.224-.5,.5-.5s.5,.224,.5,.5c0,.464,.51,.5,.666,.5h1.668c.367,0,.666-.299,.666-.666,0-.301-.203-.565-.494-.643l-2.287-.499c-.729-.198-1.22-.841-1.22-1.57,0-.894,.728-1.622,1.622-1.622h.378v-.5c0-.276,.224-.5,.5-.5s.5,.224,.5,.5v.5h.391c.932,0,1.609,.631,1.609,1.5,0,.276-.224,.5-.5,.5s-.5-.224-.5-.5c0-.476-.507-.5-.609-.5h-1.77c-.343,0-.622,.279-.622,.622Z"/>
</svg>
